<?xml version="1.0" encoding="UTF-8"?>
<svg version="1.1" viewBox="0 0 2048 466" width="1280" height="1280" xmlns="http://www.w3.org/2000/svg">
<path transform="translate(197,2)" d="m0 0h168l25 2 26 5 20 6 24 10 23 13 14 10 11 9 10 9 15 15 11 14 14 21 11 21 10 26 6 24 3 19 1 10v34l-3 24-6 25-7 20-8 18-10 18-14 21-9 17-10 14-19 19-13 9-16 9-18 7-16 4-39 5-21 3-26 1-26-2-22-4-19-5-21-8-16-8-16-9-17-12-14-12-8-7-7-8-10-11-13-18-9-15-8-16-6-14-6-18-5-21-3-22-1-22v-153l1-15 4-15 8-15 10-12 14-10 10-5 14-4z" fill="#E86C6B"/>
<path transform="translate(391,150)" d="m0 0h29l22 3 19 5 21 9 16 10 11 9 13 13 10 14 9 16 7 19 5 21 2 20v20l-1 13-2 4h-206l3 16 5 13 7 10 9 8 12 6 11 3h19l12-3 11-6 5-4 7-10 2-4 2-1h96l1 2-5 17-11 20-10 14-19 19-13 9-16 9-18 7-16 4-24 3h-21l-24-3-19-5-16-6-17-9-12-9-10-9-7-7-10-13-10-17-8-20-5-19-3-25v-25l3-24 5-19 6-16 9-17 10-14 12-13 12-10 18-11 13-6 18-6 21-4z" fill="#FCFCFC"/>
<path transform="translate(341,2)" d="m0 0h24l25 2 26 5 20 6 24 10 23 13 14 10 11 9 10 9 15 15 11 14 14 21 11 21 10 26 6 24 3 19 1 10v34l-3 24-6 25-7 20-8 18-10 18-11 16-1-3 4-13h-98l-2 6-8 10-11 7-11 4-5 1h-19l-14-4-12-7-9-9-7-12-4-13-1-5v-7l206-1 1-3 1-13v-20l-2-20-5-21-7-19-9-16-8-11-9-10-8-8-17-12-16-8-15-6-21-5-17-2h-29l-22 3-19 5-15 6-15 8-10 7-3-1 5-5 6-4 4-2-5 1-6 3-11 9-11 8-4 1v2h-2l-1 3-7 5h-5l-1-5-4-1-1-5 2-2-2-4 1-4-2-4 1-6-1-6-2-1-1-5v-7l3-7 1-2v-12l11-19 5-15-1-10 1-9 1-6v-9l-2-4v-15h-2l-1-4-3-1v-7l4-7h2l3-6 2-2 16-4 2-1-1-1h-7l-1-1-7-1-1-3 8-1z" fill="#CE5151"/>
<path transform="translate(1248,247)" d="m0 0h16l14 3 10 4 11 8 7 7 4 6 15-15 14-8 12-4 6-1h16l15 3 12 5 9 7 8 8 8 14 4 15 1 7v103h-49l-1-89-2-11-4-8-1-3-12-6-5-1h-12l-10 3-8 7-4 8-2 14-1 86h-49l-1-95-4-11-6-7-9-4-4-1h-13l-11 4-5 4-5 9-2 9-1 92h-49v-160h49l1 18 9-9 10-6 13-4z" fill="#FDFDFD"/>
<path transform="translate(847,247)" d="m0 0h28l17 4 16 8 10 8 9 10 6 10 5 13 3 17v20l-1 4h-111l3 12 5 8 1 3 4 2 9 4 9 1 10-2 6-3 5-5 4-5h52l-2 9-6 12-7 9-10 10-13 8-14 5-17 3h-15l-17-3-14-5-10-6-11-9-9-12-7-14-4-14-1-7v-26l4-18 5-12 7-11 13-13 14-8 10-4zm10 39-9 2-8 5-7 8-4 11 2 2h59v-7l-4-9-5-5-8-5-9-2z" fill="#FDFDFD"/>
<path transform="translate(1828,247)" d="m0 0h29l16 4 16 8 8 6 10 10 7 11 6 16 2 11v28h-112l5 15 6 8 6 4 6 2 9 1 10-2 8-5 6-8h53l-3 10-6 12-9 11-9 8-14 8-15 5-13 2h-15l-18-3-13-5-11-6-12-11-9-12-6-13-4-16-1-9v-16l2-14 5-16 6-11 8-10 10-9 14-8 12-4zm10 39-9 2-9 6-6 8-3 8 1 4h59l1-4-3-10-7-8-8-4-8-2z" fill="#FDFDFD"/>
<path transform="translate(1523,247)" d="m0 0h28l14 3 13 5 12 7 12 11 7 10 7 14 4 15 1 7v21l-3 15-5 13-7 12-12 13-14 9-14 6-14 3-7 1h-16l-18-3-15-6-10-6-10-9-8-9-7-12-5-15-2-13v-20l3-16 5-13 6-10 8-10 9-8 14-8 14-5zm6 43-9 4-8 7-6 12-2 12v9l3 14 4 8 8 8 9 4 4 1h10l11-4 9-7 6-10 2-7 1-16-2-12-6-12-8-7-9-4z" fill="#FDFDFD"/>
<path transform="translate(1056,247)" d="m0 0h16l14 3 14 7 10 9 6 8 5 10 4 15 1 11v99h-49l-1-87-2-14-5-9-7-6-8-3h-17l-10 5-6 7-4 10-1 8-1 89h-49v-160h49l1 19 9-9 14-8 11-3z" fill="#FDFDFD"/>
<path transform="translate(595,249)" d="m0 0h53l17 55 17 56 7-21 22-73 5-16 1-1h52l-2 9-16 45-22 62-16 44h-62l-16-45-22-62-16-45-2-5z" fill="#FDFDFD"/>
<path transform="translate(1742,247)" d="m0 0h6v52l-26 2-11 4-7 6-4 9-2 16-1 73h-49v-160h49v25h2l2-4 8-9 10-7 12-5z" fill="#FDFDFD"/>
<path transform="translate(198,35)" d="m0 0 13 1 12 5 10 9 6 9 3 10v15l-4 12-6 8-9 8-9 4-11 2-11-1-12-5-8-6-7-9-4-10-1-5v-11l3-11 7-11 8-7 10-5z" fill="#FDFDFD"/>
<path transform="translate(393,224)" d="m0 0h24l13 4 11 6 9 8 7 11 4 16v6h-114l1-10 5-13 8-11 9-8 12-6z" fill="#CF5252"/>
<path transform="translate(247,371)" d="m0 0h1l1 6 4 3 3 6-1 5 4 2 3 2v3l4 1 5 8v2l4 2 6 6 22 11-6-6v-4l4 2 12 10 15 9 15 7 19 6 22 4 23 2v1l-27 4-26 1-26-2-13-2-3-2-22-6v-2l-5-1 3-2 2-1-1-2-6-3v-2l-9-3-11-8-1-1-3-15h2l-5-9-1-6 1-2-5-2-4-8-1-12z" fill="#CF5252"/>
<path transform="translate(320,169)" d="m0 0m-3 1 5 1-5 4-7 5-3-1 5-5z" fill="#D65958"/>
<path transform="translate(243,356)" d="m0 0 3 1v12l-3-3-1-7z" fill="#CE5151"/>
</svg>
